<svg width="32" height="33" viewBox="0 0 32 33" fill="none" xmlns="http://www.w3.org/2000/svg">
<path d="M32 6.1422C32 11.0071 29.8791 14.5416 29.7899 14.689C29.6103 14.9826 29.2993 15.1436 28.9785 15.1436C28.81 15.1436 28.6403 15.099 28.4866 15.0061C28.0382 14.7336 27.8945 14.1501 28.1658 13.7016C28.1856 13.6694 30.0996 10.4521 30.0996 6.1422C30.0996 3.68433 28.5015 1.90039 26.2988 1.90039C24.2027 1.90039 22.4981 3.60504 22.4981 5.70241C22.4981 6.59561 22.9304 8.86518 23.0964 9.66423C23.2042 10.1784 22.8734 10.6813 22.3593 10.7891C21.8452 10.8944 21.3422 10.5661 21.2357 10.0532C21.17 9.7398 20.5952 6.95364 20.5952 5.70241C20.5952 2.55822 23.1534 0 26.2988 0C29.5483 0 32 2.63998 32 6.1422ZM26.4599 7.63748C26.8377 10.7953 27.3853 16.9486 26.756 17.5755L12.9478 31.3849C12.0992 32.2348 10.7203 32.2348 9.8705 31.3837L0.637386 22.1518C-0.212462 21.3032 -0.212462 19.9244 0.637386 19.0745L14.4468 5.26633C14.6661 5.04706 17.0546 5.03715 19.7404 5.17714C19.7255 5.35429 19.6871 5.52153 19.6871 5.70241C19.6871 6.3912 19.8395 7.45909 19.9993 8.39813C19.7181 8.81563 19.5533 9.31736 19.5533 9.85873C19.5533 11.3007 20.7228 12.4702 22.1648 12.4702C23.6068 12.4702 24.7763 11.3007 24.7763 9.85873C24.7763 8.97048 24.3315 8.18753 23.6539 7.71677C23.5151 6.89046 23.4037 6.09264 23.4037 5.70241C23.4037 5.61817 23.421 5.54012 23.4284 5.45712C23.7592 5.4918 24.085 5.52773 24.3935 5.56613C26.2183 5.79036 26.2369 5.78665 26.4599 7.63748ZM19.0999 17.9719C18.8856 17.376 18.5288 16.6612 17.7545 15.8386L18.8026 14.7893L17.6356 13.6236L16.5045 14.7559C14.9907 13.719 13.4297 13.8032 12.3705 14.8624C11.2159 16.017 11.4884 17.4826 12.3358 19.186C12.9181 20.3654 13.0246 21.0443 12.5724 21.4964C12.1079 21.961 11.3584 21.7591 10.6782 21.0802C9.90519 20.3072 9.45177 19.352 9.2263 18.5777L7.47457 19.6159C7.67774 20.3171 8.22531 21.3168 8.99835 22.1394L7.85614 23.2829L9.02189 24.4499L10.2496 23.2234C11.8688 24.3656 13.5016 24.212 14.5608 23.1528C15.6448 22.0663 15.7402 20.8522 14.811 18.9234C14.1668 17.5408 14.012 16.8619 14.3935 16.4816C14.728 16.1471 15.3227 16.0517 16.0969 16.826C16.9555 17.6845 17.2404 18.5183 17.3952 18.9593L19.0999 17.9719Z" fill="#656565"/>
</svg>
