<svg width="29" height="29" viewBox="0 0 29 29" fill="none" xmlns="http://www.w3.org/2000/svg">
<path d="M1.07735 24.0705L7.7475 18.1254C6.44247 16.3854 5.71745 14.0653 5.71745 11.6003C5.71745 5.22012 10.9376 0 17.3177 0C23.6979 0 28.918 5.22012 28.918 11.6003C28.918 17.9804 23.6979 23.2005 17.3177 23.2005C14.8527 23.2005 12.6776 22.4755 10.7926 21.1705L4.84743 27.8406C3.97741 29.1457 1.94737 29.4357 0.787344 28.2756C-0.372683 27.1156 -0.22768 25.0856 1.07735 24.0705ZM17.3177 20.3005C22.1028 20.3005 26.0179 16.3854 26.0179 11.6003C26.0179 6.81515 22.1028 2.90006 17.3177 2.90006C12.5326 2.90006 8.61752 6.81515 8.61752 11.6003C8.61752 16.3854 12.5326 20.3005 17.3177 20.3005Z" fill="#656565"/>
<path d="M18.7676 10.1504H15.8675V17.4006H18.7676V10.1504Z" fill="#656565"/>
<path d="M17.3175 8.69987C16.5167 8.69987 15.8675 8.05067 15.8675 7.24984C15.8675 6.44901 16.5167 5.7998 17.3175 5.7998C18.1184 5.7998 18.7676 6.44901 18.7676 7.24984C18.7676 8.05067 18.1184 8.69987 17.3175 8.69987Z" fill="#656565"/>
</svg>
