<svg width="35" height="25" viewBox="0 0 35 25" fill="none" xmlns="http://www.w3.org/2000/svg">
<path d="M34.2566 13.5885C33.2287 11.8543 31.7051 10.4984 29.9302 9.65712C31.9964 7.39592 31.9364 3.87481 29.7491 1.68745C27.4991 -0.562482 23.8384 -0.562482 21.5884 1.68745C21.4109 1.86494 21.2487 2.05189 21.0996 2.24574C21.9889 2.66401 22.8083 3.23759 23.5234 3.95265C25.9701 6.39971 26.6499 9.94882 25.5267 13.0084C26.6957 13.9566 27.6901 15.1052 28.4666 16.4149C29.1464 17.5613 29.4814 18.827 29.473 20.0928H30.5227C32.0994 20.0928 33.5073 19.2733 34.2893 17.901C35.0636 16.5415 35.0513 14.9291 34.2566 13.5885Z" fill="#6A6A6A"/>
<path d="M6.39478 16.4152C7.17131 15.1054 8.1657 13.9568 9.33503 13.0086C8.21152 9.94909 8.8913 6.39998 11.338 3.95292C12.0531 3.23786 12.8725 2.66429 13.7618 2.24602C13.6127 2.05216 13.4504 1.86521 13.273 1.68772C11.023 -0.562573 7.36226 -0.562573 5.11233 1.68772C2.92496 3.87509 2.86495 7.39583 4.9312 9.65739C3.15628 10.4983 1.63269 11.8546 0.604837 13.5888C-0.189875 14.9294 -0.202241 16.5414 0.572467 17.9009C1.35409 19.2736 2.76238 20.0927 4.33871 20.0927H5.38875C5.38002 18.827 5.71536 17.5616 6.39478 16.4152Z" fill="#6A6A6A"/>
<path d="M26.0187 17.8658C24.9905 16.1317 23.4673 14.7757 21.6924 13.9345C23.7586 11.6733 23.6986 8.15216 21.5112 5.96479C19.2613 3.71486 15.6005 3.71486 13.3506 5.96479C11.1632 8.15216 11.1032 11.6733 13.1695 13.9345C11.3946 14.7757 9.87133 16.1317 8.84312 17.8658C8.04841 19.2065 8.03604 20.8188 8.81075 22.1784C9.59273 23.5507 11.0007 24.3701 12.577 24.3701H22.2848C23.8612 24.3701 25.2695 23.5507 26.0511 22.1784C26.8258 20.8188 26.8134 19.2065 26.0187 17.8658Z" fill="#6A6A6A"/>
</svg>
