<svg width="26" height="26" viewBox="0 0 26 26" fill="none" xmlns="http://www.w3.org/2000/svg">
<path d="M21.6649 2.16649H20.5817V1.08324C20.5817 0.79595 20.4675 0.520423 20.2644 0.317275C20.0612 0.114127 19.7857 0 19.4984 0C19.2111 0 18.9356 0.114127 18.7324 0.317275C18.5293 0.520423 18.4152 0.79595 18.4152 1.08324V2.16649H7.58271V1.08324C7.58271 0.79595 7.46859 0.520423 7.26544 0.317275C7.06229 0.114127 6.78676 0 6.49947 0C6.21217 0 5.93665 0.114127 5.7335 0.317275C5.53035 0.520423 5.41622 0.79595 5.41622 1.08324V2.16649H4.33298C3.18421 2.16781 2.08286 2.62474 1.27056 3.43705C0.458251 4.24935 0.00131881 5.3507 0 6.49947L0 7.58271H25.9979V6.49947C25.9966 5.3507 25.5396 4.24935 24.7273 3.43705C23.915 2.62474 22.8137 2.16781 21.6649 2.16649Z" fill="#6A6A6A"/>
<path d="M0 21.6676C0.00131881 22.8164 0.458251 23.9178 1.27056 24.7301C2.08286 25.5424 3.18421 25.9993 4.33298 26.0006H21.6649C22.8137 25.9993 23.915 25.5424 24.7273 24.7301C25.5396 23.9178 25.9966 22.8164 25.9979 21.6676V9.75195H0V21.6676ZM12.9989 13.0017H20.5817C20.8689 13.0017 21.1445 13.1158 21.3476 13.319C21.5508 13.5221 21.6649 13.7976 21.6649 14.0849C21.6649 14.3722 21.5508 14.6478 21.3476 14.8509C21.1445 15.054 20.8689 15.1682 20.5817 15.1682H12.9989C12.7116 15.1682 12.4361 15.054 12.233 14.8509C12.0298 14.6478 11.9157 14.3722 11.9157 14.0849C11.9157 13.7976 12.0298 13.5221 12.233 13.319C12.4361 13.1158 12.7116 13.0017 12.9989 13.0017ZM12.9989 18.4179H20.5817C20.8689 18.4179 21.1445 18.532 21.3476 18.7352C21.5508 18.9383 21.6649 19.2139 21.6649 19.5012C21.6649 19.7885 21.5508 20.064 21.3476 20.2671C21.1445 20.4703 20.8689 20.5844 20.5817 20.5844H12.9989C12.7116 20.5844 12.4361 20.4703 12.233 20.2671C12.0298 20.064 11.9157 19.7885 11.9157 19.5012C11.9157 19.2139 12.0298 18.9383 12.233 18.7352C12.4361 18.532 12.7116 18.4179 12.9989 18.4179ZM5.41622 13.0017H8.66596C8.95325 13.0017 9.22878 13.1158 9.43193 13.319C9.63508 13.5221 9.7492 13.7976 9.7492 14.0849C9.7492 14.3722 9.63508 14.6478 9.43193 14.8509C9.22878 15.054 8.95325 15.1682 8.66596 15.1682H5.41622C5.12893 15.1682 4.8534 15.054 4.65025 14.8509C4.44711 14.6478 4.33298 14.3722 4.33298 14.0849C4.33298 13.7976 4.44711 13.5221 4.65025 13.319C4.8534 13.1158 5.12893 13.0017 5.41622 13.0017ZM5.41622 18.4179H8.66596C8.95325 18.4179 9.22878 18.532 9.43193 18.7352C9.63508 18.9383 9.7492 19.2139 9.7492 19.5012C9.7492 19.7885 9.63508 20.064 9.43193 20.2671C9.22878 20.4703 8.95325 20.5844 8.66596 20.5844H5.41622C5.12893 20.5844 4.8534 20.4703 4.65025 20.2671C4.44711 20.064 4.33298 19.7885 4.33298 19.5012C4.33298 19.2139 4.44711 18.9383 4.65025 18.7352C4.8534 18.532 5.12893 18.4179 5.41622 18.4179Z" fill="#6A6A6A"/>
</svg>
