<svg width="18" height="16" viewBox="0 0 18 16" fill="none" xmlns="http://www.w3.org/2000/svg">
<path d="M15.4038 8.24023H14.0117C14.1536 8.62871 14.2311 9.04794 14.2311 9.48489V14.746C14.2311 14.9282 14.1994 15.103 14.1417 15.2657H16.4431C17.3027 15.2657 18.0021 14.5663 18.0021 13.7066V10.8386C18.0021 9.40586 16.8365 8.24023 15.4038 8.24023Z" fill="#6A6A6A"/>
<path d="M3.771 9.48489C3.771 9.04791 3.84852 8.62871 3.99041 8.24023H2.59837C1.16563 8.24023 0 9.40586 0 10.8386V13.7067C0 14.5663 0.699357 15.2657 1.55902 15.2657H3.8604C3.80271 15.103 3.771 14.9282 3.771 14.746V9.48489Z" fill="#6A6A6A"/>
<path d="M10.5913 6.88867H7.40892C5.97618 6.88867 4.81055 8.0543 4.81055 9.48705V14.7481C4.81055 15.0351 5.04321 15.2678 5.33022 15.2678H12.67C12.957 15.2678 13.1897 15.0351 13.1897 14.7481V9.48705C13.1897 8.0543 12.024 6.88867 10.5913 6.88867Z" fill="#6A6A6A"/>
<path d="M9.00377 0C7.28071 0 5.87891 1.40181 5.87891 3.1249C5.87891 4.29366 6.52398 5.31441 7.47664 5.85033C7.9285 6.10451 8.44944 6.24977 9.00377 6.24977C9.55811 6.24977 10.0791 6.10451 10.5309 5.85033C11.4836 5.31441 12.1286 4.29363 12.1286 3.1249C12.1286 1.40184 10.7268 0 9.00377 0Z" fill="#6A6A6A"/>
<path d="M3.51668 2.91016C2.22804 2.91016 1.17969 3.95851 1.17969 5.24715C1.17969 6.53579 2.22804 7.58414 3.51668 7.58414C3.84356 7.58414 4.15483 7.51643 4.43759 7.39472C4.92646 7.18424 5.32956 6.81165 5.57899 6.34496C5.75407 6.01741 5.85367 5.64374 5.85367 5.24715C5.85367 3.95854 4.80532 2.91016 3.51668 2.91016Z" fill="#6A6A6A"/>
<path d="M14.4874 2.91016C13.1987 2.91016 12.1504 3.95851 12.1504 5.24715C12.1504 5.64377 12.25 6.01745 12.4251 6.34496C12.6745 6.81169 13.0776 7.18427 13.5665 7.39472C13.8492 7.51643 14.1605 7.58414 14.4874 7.58414C15.776 7.58414 16.8244 6.53579 16.8244 5.24715C16.8244 3.95851 15.776 2.91016 14.4874 2.91016Z" fill="#6A6A6A"/>
</svg>
