<svg width="38" height="35" viewBox="0 0 38 35" fill="none" xmlns="http://www.w3.org/2000/svg">
<path d="M29.4713 28.6362C28.4332 28.0025 26.977 27.6674 25.2603 27.6674H19.132C16.3157 27.6674 15.2661 26.659 15.2661 26.0233C15.2661 25.3877 16.3157 24.3793 19.132 24.3793H21.7773C25.2937 24.3793 26.8677 22.9378 26.8677 21.5094C26.8677 20.0809 25.2937 18.6396 21.7773 18.6396H19.132C16.3157 18.6396 15.2662 17.6312 15.2662 16.9956C15.2662 16.3599 16.3157 15.3515 19.132 15.3515H27.2958C27.634 15.3515 27.9081 15.0774 27.9081 14.7392C27.9081 14.4011 27.634 14.127 27.2958 14.127H19.132C17.643 14.127 16.3771 14.3983 15.4714 14.9117C14.5627 15.4268 14.0416 16.1864 14.0416 16.9957C14.0416 18.4235 15.6156 19.8643 19.132 19.8643H21.7773C24.5935 19.8643 25.6431 20.8734 25.6431 21.5096C25.6431 22.1457 24.5936 23.1548 21.7773 23.1548H19.132C15.6156 23.1548 14.0416 24.5956 14.0416 26.0236C14.0416 27.4515 15.6156 28.8923 19.132 28.8923H25.2603C28.2624 28.8923 29.833 29.9964 29.833 31.0871C29.833 32.1477 28.3299 33.2215 25.457 33.2215H11.2783C10.9401 33.2215 10.666 33.4956 10.666 33.8338C10.666 34.1719 10.9401 34.4461 11.2783 34.4461H25.457C29.3051 34.4461 31.0577 32.7048 31.0577 31.0871C31.0577 30.1449 30.4795 29.2518 29.4713 28.6362Z" fill="#656565"/>
<path fill-rule="evenodd" clip-rule="evenodd" d="M8.78782 19.9003C7.94776 19.3971 6.96418 19.1155 5.95277 19.0947C4.94145 19.1155 3.95787 19.3971 3.11773 19.9003C0.0373976 21.7446 -1.12672 26.5506 5.2029 32.2313C5.78151 32.7207 6.1425 32.7761 6.70257 32.2313C13.0322 26.5506 11.8682 21.7446 8.78782 19.9003Z" fill="#656565"/>
<path fill-rule="evenodd" clip-rule="evenodd" d="M6.70211 32.2318C13.0317 26.551 11.8676 21.7452 8.78728 19.9008C8.09534 19.4876 7.30616 19.2222 6.48686 19.1299C6.73452 19.2338 6.97283 19.3538 7.20195 19.4923C10.2823 21.3366 11.4464 26.1403 5.11677 31.8233C5.05194 31.8856 4.99179 31.9387 4.93164 31.9849C5.02191 32.0679 5.11217 32.1511 5.20244 32.2319C5.78097 32.7212 6.14204 32.7766 6.70211 32.2318Z" fill="#8B8B8B"/>
<path fill-rule="evenodd" clip-rule="evenodd" d="M5.95212 21.9014C4.67 21.9014 3.63086 22.9378 3.63086 24.2166C3.63086 25.4954 4.67 26.5341 5.95212 26.5341C7.23425 26.5341 8.27339 25.4954 8.27339 24.2166C8.27339 22.9378 7.23425 21.9014 5.95212 21.9014Z" fill="white"/>
<path fill-rule="evenodd" clip-rule="evenodd" d="M35.4515 0.805587C34.6114 0.302343 33.6301 0.0207638 32.6188 0C31.6051 0.0207638 30.6239 0.302422 29.7837 0.805587C26.7034 2.64992 25.5393 7.45586 31.8689 13.1366C32.4475 13.626 32.8085 13.6813 33.3663 13.1366C39.6981 7.45578 38.5341 2.64992 35.4515 0.805587Z" fill="#656565"/>
<path fill-rule="evenodd" clip-rule="evenodd" d="M33.3657 13.1371C39.6977 7.4563 38.5335 2.65044 35.4509 0.80611C34.7613 0.392895 33.9721 0.127484 33.1505 0.0351562C33.3982 0.139054 33.6388 0.259041 33.868 0.395273C36.9483 2.2419 38.1124 7.04555 31.7828 12.7286C31.718 12.7909 31.6578 12.8439 31.5977 12.8902C31.6856 12.9733 31.7759 13.0563 31.8685 13.1372C32.4469 13.6265 32.808 13.6819 33.3657 13.1371Z" fill="#8B8B8B"/>
<path fill-rule="evenodd" clip-rule="evenodd" d="M32.6185 2.80762C31.3364 2.80762 30.2949 3.84406 30.2949 5.12286C30.2949 6.40165 31.3364 7.4404 32.6185 7.4404C33.9006 7.4404 34.9397 6.40165 34.9397 5.12286C34.9397 3.84406 33.9006 2.80762 32.6185 2.80762Z" fill="white"/>
</svg>
