<svg width="32" height="29" viewBox="0 0 32 29" fill="none" xmlns="http://www.w3.org/2000/svg">
<path fill-rule="evenodd" clip-rule="evenodd" d="M11.8418 3.33084C11.8418 2.71773 12.3388 2.2207 12.9519 2.2207H30.7141C31.3272 2.2207 31.8242 2.71773 31.8242 3.33084C31.8242 3.94394 31.3272 4.44097 30.7141 4.44097H12.9519C12.3388 4.44097 11.8418 3.94394 11.8418 3.33084Z" fill="#656565"/>
<path fill-rule="evenodd" clip-rule="evenodd" d="M11.8418 13.6912C11.8418 13.0781 12.3388 12.5811 12.9519 12.5811H30.7141C31.3272 12.5811 31.8242 13.0781 31.8242 13.6912C31.8242 14.3043 31.3272 14.8013 30.7141 14.8013H12.9519C12.3388 14.8013 11.8418 14.3043 11.8418 13.6912Z" fill="#656565"/>
<path fill-rule="evenodd" clip-rule="evenodd" d="M11.8418 24.0525C11.8418 23.4394 12.3388 22.9424 12.9519 22.9424H30.7141C31.3272 22.9424 31.8242 23.4394 31.8242 24.0525C31.8242 24.6656 31.3272 25.1627 30.7141 25.1627H12.9519C12.3388 25.1627 11.8418 24.6656 11.8418 24.0525Z" fill="#656565"/>
<path fill-rule="evenodd" clip-rule="evenodd" d="M4.0705 11.8414C3.04864 11.8414 2.22027 12.6697 2.22027 13.6916C2.22027 14.7135 3.04864 15.5418 4.0705 15.5418C5.09235 15.5418 5.92072 14.7135 5.92072 13.6916C5.92072 12.6697 5.09235 11.8414 4.0705 11.8414ZM0 13.6916C0 11.4435 1.82243 9.62109 4.0705 9.62109C6.31856 9.62109 8.14099 11.4435 8.14099 13.6916C8.14099 15.9397 6.31856 17.7621 4.0705 17.7621C1.82243 17.7621 0 15.9397 0 13.6916Z" fill="#656565"/>
<path fill-rule="evenodd" clip-rule="evenodd" d="M4.0705 22.2027C3.04864 22.2027 2.22027 23.031 2.22027 24.0529C2.22027 25.0748 3.04864 25.9031 4.0705 25.9031C5.09235 25.9031 5.92072 25.0748 5.92072 24.0529C5.92072 23.031 5.09235 22.2027 4.0705 22.2027ZM0 24.0529C0 21.8048 1.82243 19.9824 4.0705 19.9824C6.31856 19.9824 8.14099 21.8048 8.14099 24.0529C8.14099 26.301 6.31856 28.1234 4.0705 28.1234C1.82243 28.1234 0 26.301 0 24.0529Z" fill="#656565"/>
<path fill-rule="evenodd" clip-rule="evenodd" d="M8.55593 0.325148C8.98946 0.758678 8.98946 1.46159 8.55593 1.89512L4.11539 6.33566C3.68186 6.76919 2.97895 6.76919 2.54542 6.33566L0.325148 4.11539C-0.108383 3.68186 -0.108383 2.97895 0.325148 2.54542C0.758678 2.11189 1.46159 2.11189 1.89512 2.54542L3.3304 3.9807L6.98596 0.325148C7.41949 -0.108383 8.1224 -0.108383 8.55593 0.325148Z" fill="#656565"/>
</svg>
