<svg width="26" height="15" viewBox="0 0 26 15" fill="none" xmlns="http://www.w3.org/2000/svg">
<path d="M18.4664 1.99759C16.6457 1.04464 14.6213 0.546875 12.5662 0.546875C10.5112 0.546875 8.48674 1.04464 6.66602 1.99759L8.92466 5.90937C9.61471 5.56056 10.3516 5.31337 11.1124 5.17549C11.3045 4.28811 11.5015 3.4088 11.691 2.58559C11.7362 2.38726 11.8474 2.21016 12.0064 2.0833C12.1654 1.95645 12.3628 1.88736 12.5662 1.88736C12.7696 1.88736 12.967 1.95645 13.1261 2.0833C13.2851 2.21016 13.3963 2.38726 13.4415 2.58559C13.6309 3.4088 13.828 4.28811 14.0201 5.17549C14.7809 5.31337 15.5177 5.56056 16.2078 5.90937L18.4664 1.99759Z" fill="#6A6A6A"/>
<path d="M20.6394 12.6543L25.1329 12.6659C25.0691 10.6097 24.4984 8.60105 23.4716 6.81839C22.4448 5.03573 20.9937 3.53424 19.2471 2.44727L16.9902 6.3559C18.0482 7.0477 18.9294 7.97777 19.5631 9.07153C20.1968 10.1653 20.5655 11.3923 20.6394 12.6543Z" fill="#6A6A6A"/>
<path d="M10.7734 12.6669C10.7734 13.1431 10.9626 13.5997 11.2993 13.9364C11.636 14.2731 12.0927 14.4623 12.5689 14.4623C13.045 14.4623 13.5017 14.2731 13.8384 13.9364C14.1751 13.5997 14.3643 13.1431 14.3643 12.6669C14.3643 11.3136 13.7435 7.89734 12.5689 2.78711C11.3942 7.89734 10.7734 11.3136 10.7734 12.6669ZM13.0177 12.6669V13.1157C13.0177 13.2348 12.9704 13.3489 12.8863 13.4331C12.8021 13.5173 12.6879 13.5646 12.5689 13.5646C12.4498 13.5646 12.3356 13.5173 12.2515 13.4331C12.1673 13.3489 12.12 13.2348 12.12 13.1157V12.6669C12.12 12.5478 12.1673 12.4337 12.2515 12.3495C12.3356 12.2653 12.4498 12.218 12.5689 12.218C12.6879 12.218 12.8021 12.2653 12.8863 12.3495C12.9704 12.4337 13.0177 12.5478 13.0177 12.6669Z" fill="#6A6A6A"/>
<path d="M8.14763 6.3559L5.89079 2.44727C4.14336 3.53542 2.69147 5.03798 1.66389 6.82169C0.636299 8.6054 0.0647743 10.6151 0 12.6727L4.49799 12.6655C4.571 11.4017 4.93918 10.1727 5.57299 9.07697C6.20679 7.98123 7.08859 7.04929 8.14763 6.3559Z" fill="#6A6A6A"/>
</svg>
